<svg xmlns="http://www.w3.org/2000/svg" width="115" height="30" viewBox="0 0 115 30" fill="none"><path d="M0 9L9 0H115V30H0V9Z" fill="black"></path><g clip-path="url(#clip0_691_1116)"><path fill-rule="evenodd" clip-rule="evenodd" d="M103.571 10.3839H110V4H103.571H102.136H95.7066H94.2229L87.8428 10.3839V11.808V18.192V19.6652V26H94.2229H95.7066H102.136H103.571H110V19.6652H103.571H102.136H95.7066H94.2229V18.192V11.808V10.3839H95.7066H102.136H103.571Z" fill="white"></path><path fill-rule="evenodd" clip-rule="evenodd" d="M85.3698 4H78.9402V10.3839V11.8571V18.2411V19.7143V26.0982H85.3698C85.3698 1.29911 85.3698 28.75 85.3698 4Z" fill="white"></path><path fill-rule="evenodd" clip-rule="evenodd" d="M60.6902 10.3839H62.1739H68.6035H70.0378V11.808V26H76.4674V11.808V10.3839L70.0378 4H68.6035H62.1739H60.6902H54.3101V10.3839V11.808V26H60.6902V11.808V10.3839Z" fill="white"></path><path fill-rule="evenodd" clip-rule="evenodd" d="M20.7772 10.3839H27.1573V4H20.7772H19.2935H12.8639H11.4296L5 10.3839V11.808V18.192H11.4296H12.8639H19.2935H20.7772V19.6652H19.2935H12.8639H11.4296H5V26H11.4296H12.8639H19.2935H20.7772H27.1573V19.6652V18.192V11.808H20.7772H19.2935H12.8639H11.4296V10.3839H12.8639H19.2935H20.7772Z" fill="white"></path><path fill-rule="evenodd" clip-rule="evenodd" d="M45.4076 4V18.192V19.6652H43.9238H37.5437H36.06V18.192V4H29.6304V18.192V19.6652V26H36.06H37.5437H43.9238H45.4076H51.8372V19.6652V18.192V4H45.4076Z" fill="white"></path></g><defs><clipPath id="clip0_691_1116"><rect width="105" height="22" fill="white" transform="translate(5 4)"></rect></clipPath></defs></svg>